<?xml version="1.0" encoding="UTF-8"?>
<svg xmlns="http://www.w3.org/2000/svg" viewBox="0 0 121.51 121.51">
    <path d="m89.92,78.35c-6.7,6.63-15.63,10.98-25.58,11.84l6.22,15.19c.66,1.63,2.16,2.69,3.93,2.75.06-.17-.03,0,.19,0,1.69,0,3.19-.92,3.97-2.43l3.96-7.82,8.36,1.66c1.59.33,3.24-.25,4.28-1.5,1.06-1.25,1.33-2.97.73-4.48l-6.05-15.21h0Zm-64.38,15.21c-.6,1.51-.33,3.22.73,4.48,1.04,1.25,2.69,1.83,4.26,1.5l8.37-1.68,3.96,7.84c.77,1.5,2.27,2.43,3.97,2.43h.17c1.77-.08,3.27-1.14,3.93-2.76l6.22-15.19c-9.95-.85-18.87-5.2-25.58-11.83l-6.03,15.21h0Z" style="fill: #0a3f5f; fill-rule: evenodd;"/>
    <path d="m78.52,79.69c2.59-1.5,3.24-5.56,5.34-7.66,2.1-2.1,6.18-2.76,7.66-5.35,1.49-2.54.03-6.38.82-9.3.74-2.83,3.77-5.42,3.77-8.47s-3.19-5.65-3.95-8.46c-.77-2.91.68-6.76-.81-9.3-1.5-2.59-5.56-3.25-7.66-5.35-2.1-2.1-2.75-6.16-5.34-7.66-2.56-1.47-6.39-.03-9.3-.81-2.67-.76-5.26-3.95-8.31-3.95s-5.64,3.19-8.47,3.95c-2.92.77-6.74-.66-9.3.81-2.59,1.5-3.25,5.56-5.35,7.66-2.08,2.1-6.16,2.76-7.66,5.34-1.47,2.56-.02,6.4-.8,9.3-.76,2.84-3.95,5.43-3.95,8.48s3.19,5.65,3.95,8.47c.77,2.91-.66,6.76.8,9.3,1.5,2.59,5.56,3.24,7.66,5.35,2.1,2.1,2.76,6.16,5.35,7.66,2.54,1.47,6.38.03,9.3.8,2.83.74,5.42,3.95,8.47,3.95s5.65-3.19,8.46-3.95c2.92-.77,6.75.68,9.3-.8h0Zm-32.56-30.78c0-8.2,6.62-14.81,14.8-14.81s14.81,6.62,14.81,14.81-6.63,14.8-14.81,14.8-14.8-6.62-14.8-14.8Z" style="fill: #bdd24b; fill-rule: evenodd;"/>
</svg>