<svg xmlns="http://www.w3.org/2000/svg" viewBox="0 0 132.23 132.23">
    <defs>
        <style>.cls-1{fill:#b4cb3c;}.cls-1,.cls-2{fill-rule:evenodd;}.cls-2{fill:#0a3f5f;}</style>
    </defs>
    <path class="cls-1"
          d="M105.4,36.63a3.68,3.68,0,0,1,3.68,3.68V91.92a3.69,3.69,0,0,1-3.68,3.69H35.52V40.31a3.68,3.68,0,0,1,3.68-3.68ZM79.75,68A1.85,1.85,0,0,0,81.6,69.8h18.5A1.85,1.85,0,0,0,102,68V64.27a1.85,1.85,0,0,0-1.85-1.84H81.6a1.85,1.85,0,0,0-1.85,1.84V68Zm0-11.06a1.84,1.84,0,0,0,1.85,1.84h18.5A1.84,1.84,0,0,0,102,56.9V53.22a1.85,1.85,0,0,0-1.85-1.85H81.6a1.85,1.85,0,0,0-1.85,1.85V56.9Zm0,22.11a1.85,1.85,0,0,0,1.85,1.85h18.5A1.85,1.85,0,0,0,102,79V75.33a1.85,1.85,0,0,0-1.85-1.85H81.6a1.85,1.85,0,0,0-1.85,1.85V79Zm-37.1,0a1.85,1.85,0,0,0,1.85,1.85H73A1.85,1.85,0,0,0,74.84,79V75.33A1.85,1.85,0,0,0,73,73.48H44.5a1.85,1.85,0,0,0-1.85,1.85V79ZM44.5,69.8H73A1.85,1.85,0,0,0,74.84,68V53.22A1.85,1.85,0,0,0,73,51.37H44.5a1.85,1.85,0,0,0-1.85,1.85V68A1.85,1.85,0,0,0,44.5,69.8Z"/>
    <path class="cls-2" d="M31.2,95c-3.49,0-8,.19-8-8V45.22a3.68,3.68,0,0,1,3.68-3.68H31.2Z"/>
</svg>