<svg xmlns="http://www.w3.org/2000/svg" viewBox="0 0 132.23 132.23">
    <defs>
        <style>.cls-1{fill:#0a3f5f;}.cls-1,.cls-2{fill-rule:evenodd;}.cls-2{fill:#b4cb3c;}</style>
    </defs>
    <path class="cls-1"
          d="M68.7,16.43l13.93,25.9a2.82,2.82,0,0,0,2.06,1.49l28.92,5.25a2.93,2.93,0,0,1,1.6,4.91L94.89,75.22a2.86,2.86,0,0,0-.79,2.42l4,29.13a2.93,2.93,0,0,1-4.17,3l-4.69-2.26h-.81a7.08,7.08,0,0,0,.26-1.54c.14-2.44.23-4.89.23-7.33,0-6.16-.48-13.73-3.05-19.77a6,6,0,0,0,1.71-4.17v-8A5.93,5.93,0,0,0,81.6,60.8H78.74a12.66,12.66,0,0,0-25.25,0H50.63a5.93,5.93,0,0,0-5.93,5.92v8a5.92,5.92,0,0,0,1.72,4.17c-2.57,6-3.05,13.61-3.06,19.77,0,2.44.09,4.89.23,7.33a6.54,6.54,0,0,0,.27,1.54h-.81l-4.69,2.26a2.93,2.93,0,0,1-4.18-3l4-29.13a2.86,2.86,0,0,0-.79-2.42L17,54a2.93,2.93,0,0,1,1.59-4.91l28.93-5.25a2.84,2.84,0,0,0,2.06-1.49l13.93-25.9a2.93,2.93,0,0,1,5.16,0Z"/>
    <path class="cls-2"
          d="M76,88.17l.08.15h2.1a79,79,0,0,1,.76,10.36c0,2-.06,4.28-.21,6.74a3,3,0,0,0,2.79,3.13h.18a3,3,0,0,0,3-2.79q.23-3.84.22-7.09c0-11.16-1.8-17.35-4.24-21.06a10.46,10.46,0,0,0-4-3.68,7.1,7.1,0,0,0-3.56-.8c-1.23,0-14.39,0-14.41,0a6.79,6.79,0,0,0-3.1.79,10.51,10.51,0,0,0-4,3.68c-2.44,3.71-4.23,9.9-4.25,21.06q0,3.25.22,7.09a3,3,0,0,0,3,2.79h.17a3,3,0,0,0,2.79-3.13c-.14-2.46-.21-4.7-.21-6.74a77.66,77.66,0,0,1,.77-10.36h2.09l.08-.15v16.36H76V88.17ZM66.12,70.33a8.65,8.65,0,1,1,8.65-8.65,8.65,8.65,0,0,1-8.65,8.65ZM81.6,64.8a1.93,1.93,0,0,1,1.92,1.92v8a1.93,1.93,0,0,1-.79,1.56l0,0a13,13,0,0,0-4.93-4.53A9.59,9.59,0,0,0,73,70.65h-.29a11.1,11.1,0,0,0,4.08-5.85Zm-26.18,0a11.12,11.12,0,0,0,4.09,5.85h-.3a9.53,9.53,0,0,0-4.74,1.07,12.94,12.94,0,0,0-4.93,4.53l0,0a1.94,1.94,0,0,1-.8-1.56v-8a1.93,1.93,0,0,1,1.92-1.92Z"/>
</svg>