<svg xmlns="http://www.w3.org/2000/svg" viewBox="0 0 132.23 132.23">
    <defs>
        <style>.cls-1{fill:#b4cb3c;}.cls-1,.cls-2{fill-rule:evenodd;}.cls-2{fill:#0a3f5f;}</style>
    </defs>
    <path class="cls-1"
          d="M68.7,16.43l13.93,25.9a2.82,2.82,0,0,0,2.06,1.49l28.92,5.25a2.93,2.93,0,0,1,1.6,4.91L94.89,75.22a2.86,2.86,0,0,0-.79,2.42l4,29.13a2.93,2.93,0,0,1-4.17,3l-4.69-2.26-1-.48V75.61A6.13,6.13,0,0,0,91,73.52,6.21,6.21,0,0,0,90,64.9l0-.05L86.23,62V57.87A6.26,6.26,0,0,0,80,51.63H76a6.25,6.25,0,0,0-2.63.58l-3.47-2.68a6.16,6.16,0,0,0-7.68,0l-20,15.32-.1.09a6.4,6.4,0,0,0-2.23,4.84A6.18,6.18,0,0,0,44,75.62v31.46l-1,.47-4.69,2.26a2.93,2.93,0,0,1-4.18-3l4-29.13a2.86,2.86,0,0,0-.79-2.42L17,54a2.93,2.93,0,0,1,1.59-4.91l28.93-5.25a2.84,2.84,0,0,0,2.06-1.49l13.93-25.9a2.93,2.93,0,0,1,5.16,0Z"/>
    <path class="cls-2"
          d="M82,64.13l5.29,4.06A2,2,0,0,1,87.63,71a2,2,0,0,1-1.57.79H84V105L66.36,96.2,48.27,105V71.75h-2.1a2,2,0,0,1-2-1.93A2.13,2.13,0,0,1,45,68.19l19.94-15.3a1.93,1.93,0,0,1,2.42,0l6.72,5.19v-.21a2,2,0,0,1,2-2h4a2,2,0,0,1,2,2v6.26Z"/>
</svg>