<svg xmlns="http://www.w3.org/2000/svg" viewBox="0 0 132.23 132.23">
    <defs>
        <style>.cls-3{fill:#0a3f5f;}.cls-1,.cls-2,.cls-3{fill-rule:evenodd;}.cls-2{fill:#b4cb3c;}
        </style>
    </defs>
    <path class="cls-3"
          d="M55.29,81.47a4.72,4.72,0,0,0-2.12,4,4.79,4.79,0,0,0,1.12,3.1,4.79,4.79,0,0,0-1.12,3.1,4.73,4.73,0,0,0,2,3.93,4.9,4.9,0,0,0-.59,2.29c0,3.14,2.28,4.65,4.89,4.65a7,7,0,0,0,13.24,0c2.61,0,4.9-1.51,4.9-4.65a5.15,5.15,0,0,0-.58-2.29,4.86,4.86,0,0,0,.9-7,4.78,4.78,0,0,0,1.11-3.1,4.71,4.71,0,0,0-2.11-4Z"/>
    <path class="cls-2"
          d="M89.11,54.4c0-13.19-11.6-21.73-23-21.73s-23,8.54-23,21.73a19.53,19.53,0,0,0,4.6,13,40.31,40.31,0,0,1,6.37,9.48H78.16A40.85,40.85,0,0,1,84.5,67.4,19.54,19.54,0,0,0,89.11,54.4Z"/>
    <path class="cls-3" d="M69,23a2.92,2.92,0,0,1-5.84,0V14.47a2.92,2.92,0,0,1,5.84,0Z"/>
    <path class="cls-3" d="M52.71,25.83a2.91,2.91,0,1,1-5,2.92L40.77,16.8a2.91,2.91,0,1,1,5-2.91Z"/>
    <path class="cls-3" d="M40,36.43a2.91,2.91,0,1,1-2.92,5l-5.71-3.29a2.91,2.91,0,1,1,2.92-5Z"/>
    <path class="cls-3" d="M34.25,52a2.92,2.92,0,0,1,0,5.84H20.46a2.92,2.92,0,0,1,0-5.84Z"/>
    <path class="cls-3" d="M98,57.8A2.92,2.92,0,1,1,98,52h13.79a2.92,2.92,0,1,1,0,5.83Z"/>
    <path class="cls-3" d="M95.17,41.47a2.91,2.91,0,0,1-2.92-5l6.85-4a2.91,2.91,0,1,1,2.92,5Z"/>
    <path class="cls-3" d="M84.57,28.74a2.91,2.91,0,1,1-5-2.9L86.42,13.9a2.91,2.91,0,0,1,5,2.89Z"/>
</svg>