<svg xmlns="http://www.w3.org/2000/svg" viewBox="0 0 132.23 132.23">
    <defs>
        <style>.cls-1{fill:#0a3f5f;}.cls-1,.cls-2{fill-rule:evenodd;}.cls-2{fill:#b4cb3c;}</style>
    </defs>
    <path class="cls-1"
          d="M107.65,46.64A10.43,10.43,0,0,0,97.26,36.25h-3V95.61h3a10.43,10.43,0,0,0,10.39-10.39Z"/>
    <path class="cls-2"
          d="M89.84,36.25H83.9V28.84a4.42,4.42,0,0,0-4.42-4.42H52.75a4.43,4.43,0,0,0-4.42,4.42v7.41H42.39V95.61H89.84V36.25Zm-35.61,0V30.32H78v5.93ZM64.59,78.38,81.08,74l3.3,12.33L67.89,90.71l-3.3-12.33ZM56.23,46.65a8.21,8.21,0,1,1-8.2,8.2A8.21,8.21,0,0,1,56.23,46.65Z"/>
    <path class="cls-1" d="M37.93,36.25H35A10.43,10.43,0,0,0,24.58,46.64V85.22A10.43,10.43,0,0,0,35,95.61h3Z"/>
</svg>