<svg xmlns="http://www.w3.org/2000/svg" viewBox="0 0 132.23 132.23">
    <defs>
        <style>.cls-2{fill:#b4cb3c;}.cls-2,.cls-3{fill-rule:evenodd;}.cls-3{fill:#0a3f5f;}</style>
    </defs>
    <path class="cls-2"
          d="M66.11,23.46a42.66,42.66,0,1,0,42.67,42.66A42.66,42.66,0,0,0,66.11,23.46Zm0,77.07a34.41,34.41,0,1,1,34.41-34.41A34.44,34.44,0,0,1,66.11,100.53Z"/>
    <path class="cls-3"
          d="M83.3,44.42,58.48,55.77a6.41,6.41,0,0,0-2.72,2.71L44.41,83.31a3.4,3.4,0,0,0,4.51,4.5L73.76,76.47a6.33,6.33,0,0,0,2.7-2.72L87.81,48.93a3.4,3.4,0,0,0-4.51-4.51ZM70,70a5.5,5.5,0,1,1,0-7.78A5.5,5.5,0,0,1,70,70Z"/>
</svg>