<svg xmlns="http://www.w3.org/2000/svg" viewBox="0 0 132.23 132.23">
    <defs>
        <style>.cls-2{fill:#b4cb3c;}.cls-2,.cls-3{fill-rule:evenodd;}.cls-3{fill:#0a3f5f;}</style>
    </defs>
    <path class="cls-2"
          d="M74.34,97.06H57.9a1.6,1.6,0,1,1,0-3.2H74.34a1.6,1.6,0,1,1,0,3.2Zm36.21-6H12.78v5.33c0,2.94,4,5.33,8.9,5.33h88.87c4.9,0,8.9-2.39,8.9-5.33V91Z"/>
    <path class="cls-3"
          d="M35.86,87.44H96.37a8.88,8.88,0,0,0,8.85-8.85V39.4a8.87,8.87,0,0,0-8.85-8.85H35.86A8.88,8.88,0,0,0,27,39.4V78.59a8.89,8.89,0,0,0,8.85,8.85Zm-1.78-48a1.83,1.83,0,0,1,1.78-1.78H96.37a1.82,1.82,0,0,1,1.78,1.78V78.59a1.83,1.83,0,0,1-1.78,1.78H35.86a1.84,1.84,0,0,1-1.78-1.78Z"/>
    <path class="cls-2"
          d="M91.5,66a1.35,1.35,0,0,0,.94-2.26L71.67,42.36a1.18,1.18,0,0,0-1.39-.26,1.21,1.21,0,0,0-.8,1.21V74.66a1.26,1.26,0,0,0,.8,1.23,1.08,1.08,0,0,0,1.39-.29L78,69.11l3.46,8.42h7.06L86,71.37,83.77,66Z"/>
</svg>