<svg xmlns="http://www.w3.org/2000/svg" viewBox="0 0 110.17 110.17">
    <defs>
        <style>
            .cls-2,.cls-5{fill:#0a3f5f;}.cls-2,.cls-3{fill-rule:evenodd;}.cls-3,.cls-4{fill:#b4cb3c;}
        </style>
    </defs>
    <path class="cls-2"
          d="M60.27,66.68V68A1.76,1.76,0,0,0,62,69.76h2.85V66a4.85,4.85,0,0,1-2.64.94h0L62,67a5.15,5.15,0,0,1-1.68-.29Zm27.09,3.08h2.85A1.76,1.76,0,0,0,92,68V66.68a5.2,5.2,0,0,1-1.68.29L90,67h0A4.84,4.84,0,0,1,87.36,66Z"/>
    <path class="cls-2"
          d="M90.21,24.86H85.85a10.17,10.17,0,0,1-3.72,5.33h.27a8.77,8.77,0,0,1,4.32,1,11.93,11.93,0,0,1,4.49,4.12l0,0A1.76,1.76,0,0,0,92,33.91v-7.3a1.76,1.76,0,0,0-1.75-1.75Zm-23.83,0H62a1.76,1.76,0,0,0-1.75,1.75v7.3A1.78,1.78,0,0,0,61,35.33l0,0a11.93,11.93,0,0,1,4.49-4.12,8.77,8.77,0,0,1,4.32-1h.27A10.12,10.12,0,0,1,66.38,24.86Z"/>
    <path class="cls-3"
          d="M85.1,50.41V91.8a4.11,4.11,0,1,1-8.22,0V61H75.34V91.8a4.11,4.11,0,1,1-8.21,0V50.41a36,36,0,0,0,4.17-7.87,34.24,34.24,0,0,0,2.12-10.08h5.39a34.56,34.56,0,0,0,2.11,10.08,36,36,0,0,0,4.18,7.87Zm-18-4.14a31.33,31.33,0,0,0,2.12-4.53,32.12,32.12,0,0,0,2-9.28H69.83a6.46,6.46,0,0,0-3.31.72,9.7,9.7,0,0,0-3.61,3.35c-2.22,3.38-3.85,9-3.86,19.18,0,2,.06,4.12.2,6.45A2.7,2.7,0,0,0,62,64.7h.16a2.7,2.7,0,0,0,2.54-2.85q-.2-3.36-.19-6.13a70,70,0,0,1,.7-9.44Zm14-13.81a32.12,32.12,0,0,0,2,9.28,32.47,32.47,0,0,0,2.13,4.53h1.9a70,70,0,0,1,.7,9.44q0,2.77-.19,6.13a2.7,2.7,0,0,0,2.54,2.85h.16A2.7,2.7,0,0,0,93,62.16c.14-2.33.2-4.48.2-6.45,0-10.17-1.64-15.8-3.87-19.18a9.63,9.63,0,0,0-3.61-3.35,6.41,6.41,0,0,0-3.3-.72Z"/>
    <circle class="cls-4" cx="76.11" cy="22.02" r="7.87"/>
    <path class="cls-3"
          d="M18.07,66.68V68a1.76,1.76,0,0,0,1.75,1.75h2.85V66A4.85,4.85,0,0,1,20,67h0l-.28,0a5.15,5.15,0,0,1-1.68-.29Zm27.09,3.08H48A1.76,1.76,0,0,0,49.76,68V66.68a5.2,5.2,0,0,1-1.68.29l-.28,0h0A4.84,4.84,0,0,1,45.16,66Z"/>
    <path class="cls-3"
          d="M48,24.86H43.65a10.17,10.17,0,0,1-3.72,5.33h.27a8.77,8.77,0,0,1,4.32,1A11.93,11.93,0,0,1,49,35.28l0,0a1.76,1.76,0,0,0,.73-1.42v-7.3A1.76,1.76,0,0,0,48,24.86Zm-23.83,0H19.82a1.76,1.76,0,0,0-1.75,1.75v7.3a1.78,1.78,0,0,0,.72,1.42l0,0a11.93,11.93,0,0,1,4.49-4.12,8.77,8.77,0,0,1,4.32-1h.27A10.12,10.12,0,0,1,24.18,24.86Z"/>
    <path class="cls-2"
          d="M42.9,50.41V91.8a4.11,4.11,0,1,1-8.22,0V61H33.14V91.8a4.11,4.11,0,1,1-8.21,0V50.41a36,36,0,0,0,4.17-7.87,34.24,34.24,0,0,0,2.12-10.08h5.39a34.56,34.56,0,0,0,2.11,10.08,36,36,0,0,0,4.18,7.87Zm-18-4.14A31.33,31.33,0,0,0,27,41.74a32.12,32.12,0,0,0,2-9.28H27.63a6.46,6.46,0,0,0-3.31.72,9.7,9.7,0,0,0-3.61,3.35c-2.22,3.38-3.85,9-3.86,19.18,0,2,.06,4.12.2,6.45a2.7,2.7,0,0,0,2.7,2.54h.16a2.7,2.7,0,0,0,2.54-2.85q-.19-3.36-.19-6.13a70,70,0,0,1,.7-9.44Zm14-13.81a32.12,32.12,0,0,0,2,9.28A32.47,32.47,0,0,0,43,46.27h1.9a70,70,0,0,1,.7,9.44q0,2.77-.19,6.13a2.7,2.7,0,0,0,2.54,2.85h.16a2.7,2.7,0,0,0,2.7-2.54c.14-2.33.2-4.48.2-6.45,0-10.17-1.64-15.8-3.87-19.18a9.63,9.63,0,0,0-3.61-3.35,6.41,6.41,0,0,0-3.3-.72Z"/>
    <circle class="cls-5" cx="33.91" cy="22.02" r="7.87" transform="translate(-5.64 30.43) rotate(-45)"/>
</svg>