<?xml version="1.0" encoding="UTF-8"?>
<svg xmlns="http://www.w3.org/2000/svg" viewBox="0 0 121.51 121.51">
    <path d="m77.88,60.75c9.48,0,17.14-7.66,17.14-17.14s-7.66-17.12-17.14-17.12c-3.84,0-7.33,1.3-10.19,3.44,1.76,3.38,2.86,7.17,2.86,11.24,0,5.43-1.83,10.43-4.83,14.49,3.11,3.13,7.4,5.09,12.16,5.09Z" style="fill: #bdd24b; fill-rule: evenodd;"/>
    <path d="m85.08,70.54h-11.29c7.04,5.77,11.43,14.4,11.43,24.06,0,1.96-.59,3.77-1.53,5.31h21.11c2.7,0,4.89-2.21,4.89-5.04,0-13.38-10.95-24.33-24.61-24.33Z" style="fill: #bdd24b; fill-rule: evenodd;"/>
    <path d="m53.82,68.09h-15.51c-14.64,0-26.51,11.88-26.51,26.51,0,2.94,2.38,5.31,5.3,5.31h57.91c2.94,0,5.31-2.37,5.31-5.31,0-14.63-11.86-26.51-26.51-26.51h0Z" style="fill: #0a3f5f; fill-rule: evenodd;"/>
    <circle cx="46.07" cy="41.18" r="19.58" style="fill: #0a3f5f;"/>
</svg>