<?xml version="1.0" encoding="UTF-8"?>
<svg xmlns="http://www.w3.org/2000/svg" viewBox="0 0 121.51 121.51">
    <path d="m58.2,54.67c5.05,0,9.14-4.09,9.14-9.14s-4.09-9.12-9.14-9.12-9.13,4.09-9.13,9.12,4.08,9.14,9.13,9.14Z" style="fill: #0a3f5f; fill-rule: evenodd;"/>
    <path d="m73.43,69.88c0-5.03-4.09-9.12-9.14-9.12h-12.18c-5.05,0-9.13,4.09-9.13,9.12v9.14c0,3.36,2.71,6.09,6.09,6.09v18.26c0,3.36,2.71,6.09,6.09,6.09h6.09c3.36,0,6.09-2.73,6.09-6.09v-18.26c3.36,0,6.09-2.73,6.09-6.09v-9.14Z" style="fill: #0a3f5f; fill-rule: evenodd;"/>
    <path d="m105.68,77.35l-8.07-28.23c-1.1-3.93-4.71-6.62-8.94-6.62h-12.55c-1.09,0-2.13.21-3.1.57.29.83.42,1.64.42,2.47,0,3.88-1.46,7.4-3.83,10.1,5.78,2.14,9.92,7.74,9.92,14.25v9.14c0,4.5-2.45,8.43-6.09,10.54v13.82c0,1.61-.34,3.13-.91,4.55,1.07.92,2.26,1.54,3.95,1.54h12.18c3.36,0,6.09-2.73,6.09-6.09v-18.26h5.1c4.04,0,6.97-3.86,5.84-7.76Z" style="fill: #bdd24b; fill-rule: evenodd;"/>
    <path d="m33.85,36.4c6.74,0,12.18-5.44,12.18-12.18s-5.44-12.18-12.18-12.18-12.18,5.44-12.18,12.18,5.46,12.18,12.18,12.18h0Z" style="fill: #bdd24b; fill-rule: evenodd;"/>
    <path d="m82.56,36.4c6.74,0,12.18-5.44,12.18-12.18s-5.44-12.18-12.18-12.18-12.18,5.44-12.18,12.18,5.44,12.18,12.18,12.18Z" style="fill: #bdd24b; fill-rule: evenodd;"/>
    <path d="m42.99,89.56c-3.64-2.11-6.09-6.04-6.09-10.54v-9.14c0-6.53,4.12-12.09,9.9-14.25-2.37-2.7-3.82-6.23-3.82-10.1,0-.86.11-1.7.24-2.53-1.06-.29-2.14-.5-3.3-.5h-12.18c-6.72,0-12.18,5.46-12.18,12.18v18.27c0,3.36,2.73,6.09,6.09,6.09v24.36c0,3.36,2.73,6.09,6.09,6.09h12.18c1.53,0,2.87-.62,3.95-1.54-.59-1.41-.91-2.92-.91-4.55v-13.82h.02Z" style="fill: #bdd24b; fill-rule: evenodd;"/>
</svg>