<svg xmlns="http://www.w3.org/2000/svg" viewBox="0 0 595.28 53.18">
    <defs>
        <style>
            .cls-2{fill:#fff;}.cls-2,.cls-3,.cls-4{fill-rule:evenodd;}.cls-3{fill:#b6ce31;}.cls-4{fill:#0f6591;}
        </style>
    </defs>
    <path class="cls-2" d="M0,53.18V24C81.33,35.39,184.88,42.21,297.64,42.21S513.94,35.39,595.28,24V53.18Z"/>
    <path class="cls-3" d="M173.41,43c37.18,1.38,76.59,2.09,117.4,2C404.86,44.9,508,38.75,582,29,521.51,44.52,373,48,320.83,47.83,268.46,47.91,218.63,46.19,173.41,43Z"/>
    <path class="cls-4" d="M396.28,49.83c-35.36.74-72.84.77-111.65,0C179,47.77,83.25,40.19,13.26,29.56,119.67,55.91,281.89,53.46,396.28,49.83Z"/>
</svg>