<svg xmlns="http://www.w3.org/2000/svg" viewBox="0 0 132.23 132.23">
    <defs>
        <style>.cls-2{fill:#b4cb3c;}.cls-2,.cls-3{fill-rule:evenodd;}.cls-3{fill:#0a3f5f;}</style>
    </defs>
            <path class="cls-2"
                  d="M50.31,41.15l-5-8.6a5.28,5.28,0,0,0-4.6-2.6H18.33a3.86,3.86,0,0,0-3.83,3.24l-1.32,8-1,6L9.3,68.05H85.86L75.06,45.34a8.29,8.29,0,0,0-7.32-4.19ZM14.65,63.54,17,45.66H67.74a3.78,3.78,0,0,1,3.42,2L78,63.54Zm50.64-3.15H51.23c-.66,0-1.2-.73-1.2-1.62v-6.6c0-.9.54-1.63,1.2-1.63H65.29c.66,0,1.2.73,1.2,1.63v6.6c0,.89-.54,1.62-1.2,1.62Zm-26.59,0H24.64c-.66,0-1.21-.73-1.21-1.62v-6.6c0-.9.55-1.63,1.21-1.63H38.7c.66,0,1.2.73,1.2,1.63v6.6C39.9,59.66,39.36,60.39,38.7,60.39Z"/>
            <path class="cls-3" d="M129.81,72.06H2.43v30.23H49C86.24,102.27,114.57,99.58,129.81,72.06Z"/>
</svg>