<svg xmlns="http://www.w3.org/2000/svg" viewBox="0 0 132.23 132.23">
    <defs>
        <style>.cls-2{fill:#b4cb3c;}.cls-2,.cls-3{fill-rule:evenodd;}.cls-3{fill:#0a3f5f;}</style>
    </defs>
    <path class="cls-2"
          d="M102.47,94.85H29.76A2.73,2.73,0,0,0,27,97.46v5.21h78.33V97.46A2.72,2.72,0,0,0,102.47,94.85Z"/>
    <path class="cls-3"
          d="M37.39,55.63V87H35a2.72,2.72,0,0,0-2.81,2.59v2.6h67.88v-2.6A2.73,2.73,0,0,0,97.24,87h-2.4V55.63H84.39V87H79.13V55.63H68.68V87H63.49V55.63H53V87H47.84V55.63Z"/>
    <path class="cls-2"
          d="M66.08,29.56,27,45.22v5.19h5.23A2.73,2.73,0,0,0,35,53H97.24a2.74,2.74,0,0,0,2.82-2.61h5.22V45.22Z"/>
</svg>