<svg xmlns="http://www.w3.org/2000/svg" viewBox="0 0 110.17 110.17">
    <defs>
        <style>.cls-2{fill:#0a3f5f;}.cls-2,.cls-3{fill-rule:evenodd;}.cls-3{fill:#b4cb3c;}</style>
    </defs>
    <path class="cls-2"
          d="M105.66,32.09a5.23,5.23,0,0,1,1.87,3.36,5.16,5.16,0,0,1-2.79,5.23,4.83,4.83,0,0,1-1,.38v17.6a7,7,0,0,1-2.06,5,7,7,0,0,1-5,2.07H81.9V62.16a6.68,6.68,0,0,0,3.78-2.49c.13-.16.24-.32.35-.48H96.71a.53.53,0,0,0,.36-.14.57.57,0,0,0,.15-.39V33.79L83.56,23.32,69.91,33.79H67.62a6.67,6.67,0,0,0-3.43,1l-3-2.35.25-.23.16-.14L80.45,17.53h0a5,5,0,0,1,3.1-1.08,5.1,5.1,0,0,1,3.17,1.11L105.57,32Z"/>
    <path class="cls-2"
          d="M48.71,32.09l.32.29L40.27,39.1V33.79L26.62,23.32,13,33.79V58.66a.55.55,0,0,0,.15.39.53.53,0,0,0,.36.14H24.12a6.78,6.78,0,0,0,4.16,3v3.52H13.47a7,7,0,0,1-7-7V41.06a5.18,5.18,0,0,1-2.33-1.3A5,5,0,0,1,2.6,36.15a5.12,5.12,0,0,1,.5-2.22,5.53,5.53,0,0,1,1.35-1.77L4.61,32,23.5,17.53h0a5,5,0,0,1,6.27,0L48.62,32Z"/>
    <path class="cls-3"
          d="M75.14,48.48l6.69,5.13A2.51,2.51,0,0,1,80.3,58.1H77.65V85.72a5,5,0,0,1-5,5H61.44V70.87H48.73V90.76H37.54a5,5,0,0,1-5-5V58.1H29.87a2.46,2.46,0,0,1-2.5-2.43,2.69,2.69,0,0,1,1-2.06L53.56,34.26a2.46,2.46,0,0,1,3.06,0l8.49,6.57v-.27A2.55,2.55,0,0,1,67.62,38h5a2.54,2.54,0,0,1,2.51,2.52v7.92Z"/>
</svg>