<svg xmlns="http://www.w3.org/2000/svg" viewBox="0 0 132.23 132.23">
    <defs>
        <style>.cls-2{fill:#b4cb3c;}.cls-2,.cls-3{fill-rule:evenodd;}.cls-3{fill:#0a3f5f;}</style>
    </defs>
            <path class="cls-2"
                  d="M55.84,57.57a20.49,20.49,0,0,1-27.09-1.43c-12,0-15,14-15,26,0,6.69,4.41,12.16,9.78,12.16h19.8l0-.46c.55-7.3,3.09-15.53,10.09-17.88a16.4,16.4,0,0,1,2.4-18.43Zm4.89-16.12A17.63,17.63,0,1,1,43.11,23.82,17.64,17.64,0,0,1,60.73,41.45Z"/>
            <path class="cls-2"
                  d="M118.51,81.81c0-10.66-2.64-23-13.25-23A18.07,18.07,0,0,1,82.58,61a16.4,16.4,0,0,1,0,15,11.78,11.78,0,0,1,3.28,1.74c4.36,3.29,6.11,9.18,6.71,14.78h17.29c4.73,0,8.63-4.83,8.63-10.73ZM108.14,45.89A15.55,15.55,0,1,1,92.59,30.33,15.56,15.56,0,0,1,108.14,45.89Z"/>
            <path class="cls-3"
                  d="M89.11,97.75c0-8.67-2.14-18.68-10.78-18.68a14.72,14.72,0,0,1-20.61,0c-8.63,0-10.78,10-10.78,18.68,0,4.81,3.17,8.73,7,8.73H82.09c3.85,0,7-3.92,7-8.73ZM80.68,68.53A12.65,12.65,0,1,1,68,55.86,12.66,12.66,0,0,1,80.68,68.53Z"/>
</svg>