<svg xmlns="http://www.w3.org/2000/svg" viewBox="0 0 132.23 132.23">
    <defs>
        <style>.cls-2{fill:#0a3f5f;}.cls-2,.cls-3{fill-rule:evenodd;}.cls-3{fill:#b4cb3c;}</style>
    </defs>
    <path class="cls-2"
          d="M111,67.72a1.84,1.84,0,0,0-.22-2.52L98.45,55V32.08a1.78,1.78,0,0,0-1.81-1.79H85.88a1.78,1.78,0,0,0-1.81,1.79V43L70.37,31.58a6.89,6.89,0,0,0-8.51,0L21.5,65.2a1.84,1.84,0,0,0-.22,2.52l3.47,4.15a1.92,1.92,0,0,0,1.19.62,1.88,1.88,0,0,0,1.34-.4L66.12,39.71,105,72.09a1.7,1.7,0,0,0,1.17.4h.17a1.87,1.87,0,0,0,1.19-.62Z"/>
    <path class="cls-3"
          d="M98.45,71.59a.63.63,0,0,0-.07-.34L66.12,44.65,33.85,71.25c0,.12-.07.24-.07.34V98.52a3.64,3.64,0,0,0,3.61,3.61H58.93V80.57H73.31v21.56H94.85a3.63,3.63,0,0,0,3.6-3.61Z"/>
</svg>