<svg xmlns="http://www.w3.org/2000/svg" viewBox="0 0 132.23 132.23">
    <defs>
        <style>.cls-2{fill:#b4cb3c;}.cls-2,.cls-3{fill-rule:evenodd;}.cls-3{fill:#0a3f5f;}</style>
    </defs>
            <path class="cls-2"
                  d="M32.12,30.8a34.13,34.13,0,0,0,21,59.13,32.44,32.44,0,0,1-3.58-20.45c-.23-.12-.46-.41-.67-.48-.64-.22-1.26.36-1.85.06a1.6,1.6,0,0,0,.1-.23c-.46-.58-1.72-.27-2-.8-.8.07-1.44-.62-2.19-.78a5.84,5.84,0,0,0-2.07.2c-.26,0-2.85-.38-2.51-.87-.51.78-2.22-.43-2.5-.92,0,0-.07.07-.09,0-.23-.52-2.33-2.32-1.83-2.84-.34.36-1.23-.4-1.28-.65s.88-.17,1-.14a.73.73,0,0,0-.19-.88,3.18,3.18,0,0,0-1.35-.07c-.16,0-2.29.36-2.28.42a.59.59,0,0,0-.65-.5c-.19,1.05-.72-.19-1.14,0a1.35,1.35,0,0,1-.63.1,28.66,28.66,0,0,1,1-14.4,7.27,7.27,0,0,1,.68-.69c.64-.46,1.41-.27,2.1-.37-.08-.23-.45-.38-.69-.44-.15-.36.18-.78.36-1.06a2.51,2.51,0,0,1,1-.87,9.29,9.29,0,0,0-1.39-.19,2.69,2.69,0,0,0,0,.31c-.63,0-.95,1.07-1.17,1.5a10.78,10.78,0,0,1-.36,1,.88.88,0,0,1-.37.39,28.4,28.4,0,0,1,1.83-4.14c.31,0,.73,0,1.23,0-.35,0,.34.75.52.83.81.15,1.31-.9,1.8-1.35,0,0,1.6-1.15,1-1.23.52.11,1,.6,1.53.62,0-.56-.69-.49-.77-1-.06-.2.38-.89.48-1.17s-.51-.23-.66-.2c-.51.11-1.87,1.19-1.95-.15,0-.47.92-1.08,1.32-1.17s1.28-.13,1.1.65c.25-.18,1.6-.87,1.85-.29-.1-.3-.21-.74.05-1s1,.39,1.28.43c1.2.37.51-2,.69-2-.8.33,0-1,.41-1.18s1.46.32,1,.71c.68,0,1.38.63.67,1.24-.47.38-1.6.24-1.57,1.14,0,.57.32,1.2.29,1.76a2.47,2.47,0,0,1-1.28,1.86c.25-.18.23,1.23.28,1.43a2.7,2.7,0,0,0,.31,1.11,4.63,4.63,0,0,1,.78,1.16c.39-.67,1.63.07,1.43.31a4.92,4.92,0,0,1,2-1.61c.59-.26,1.48-.72,2.12-.41,0-.32.67-.79.92-.9.57-.17,1,.22,1.47.48s1.76.79,2.06,0c0-.16.47-1.12,0-1.07s-1.3-.3-1.35-.87.47-1.27.21-1.88c-.43-1-1.39.09-1.9-.47-.31-.33,0-.82-.38-1.19s-1.4-.53-1.22-1.12,2-1.62,2.49-1.71,1.64-.64,2-.41l-.17.15c.45,0,1.12.23.79.8.24-.35,1.38-.81,1-.07.11-.28.33-.36.41-.67s0-.69.48-.8c.08,0-.22-1.08,0-1.23s.78.13,1.09.21.86-.07,1.26.1c.74.36,1.13,1,2.07.48.29-.16.57-1.09,1-.57a1.05,1.05,0,0,0,0-.44c.46.42,1.15.77,1.64.18a3.84,3.84,0,0,1,.59.78c.07.46-.48.85-.63,1.29-.06.13-.18,1.58,0,1.58a2.22,2.22,0,0,0-2,1.19,10.46,10.46,0,0,0-1.34,2,3.06,3.06,0,0,0-.25,1.16c0,.23.39,1,.26,1.12.27-.36.12-.85.19-1.28a2.66,2.66,0,0,1,1-1.7c.46-.24.88-.38.73.33-.08.3-.5.44-.66.71.35-.2.88-.47,1-.07,1.3-.3.73,1.32.11,1.76.29-.21-.07,1.05-.11,1-.13.42-.52.79-.48,1.29s1,.89.4,1.21c.19.61-.78,1.09-.69,1.85.73.06.5,1.26-.3,1.12-.2.43.27.63.12,1.11.28.08.48.21.45.49,2.42-2.8,5.28-5.47,7.65-7.79S75,32.42,76,28.58A34.19,34.19,0,0,0,32.12,30.8ZM49.79,67.65c-.08.44-.15.88-.21,1.33a6.71,6.71,0,0,0-2.29-.93c-.5-.13-1-.25-1.44-.42a11.83,11.83,0,0,1-1.24-.7c.16-.08,1.12-.48,1.16-.33.34.9,2.71.84,3.44.94A3.43,3.43,0,0,1,49.79,67.65Z"/>
            <path class="cls-3"
                  d="M88.14,49.64a2.89,2.89,0,0,1-.15,4c-8,7.43-11.14,14.24-12.12,25-.2,2.93-.18,5.83-.46,8.75a2.82,2.82,0,0,1-4.92,1.82,2.77,2.77,0,0,1-.73-2c-.18-15.32,2.79-27.05,14.35-37.76a2.87,2.87,0,0,1,4,.14ZM98.88,27.69c-2.57-2.77-12.64-11.23-16.34-7.8-2.74,2.54-2.2,4.88-2.45,8.21-.55,8.53-17.19,19.12-21.83,27.56-6.43,11.66-7.83,26.73,1.8,37.12A26.7,26.7,0,0,0,63.5,95.9c.73.54,3.19,1.49,3.46,1.78,1.75,1.9-2.27,10.53.87,13.93.64.69,1.06.67,1.87,1,2.27.69,3.83,1.12,5.89-.78,2.84-2.63-1.38-11.12.25-12.63,1.31-1.21,6.36-2.06,8.41-3A40.15,40.15,0,0,0,95,89.05a43.75,43.75,0,0,0,11-16.77c4.91-12.92,5.32-25.57-2-37.67A43.41,43.41,0,0,0,98.88,27.69Z"/>
</svg>