<svg xmlns="http://www.w3.org/2000/svg" viewBox="0 0 132.23 132.23">
    <defs>
        <style>.cls-2{fill:#0a3f5f;}.cls-2,.cls-3{fill-rule:evenodd;}.cls-3{fill:#b4cb3c;}</style>
    </defs>
    <path class="cls-2"
          d="M63.15,65a11.82,11.82,0,0,0-6.48-1.77,20.14,20.14,0,0,1-28.2,0c-11.81,0-14.74,13.69-14.74,25.55,0,6.57,4.33,11.95,9.6,11.95H61.42a17.76,17.76,0,0,1-4.58-11.95c0-1.74.06-3.48.19-5.21.49-6.51,2.15-13.71,6.12-18.57Zm-3.28-16.2A17.3,17.3,0,1,1,42.57,31.5,17.31,17.31,0,0,1,59.87,48.81Z"/>
    <path class="cls-3" d="M107,48.81A17.31,17.31,0,1,0,89.66,66.12,17.32,17.32,0,0,0,107,48.81Z"/>
    <path class="cls-3"
          d="M118.51,88.79c0-11.86-2.94-25.55-14.75-25.55a20.13,20.13,0,0,1-28.19,0c-11.81,0-14.75,13.69-14.75,25.55,0,6.57,4.34,11.95,9.6,11.95h38.49C114.17,100.74,118.51,95.36,118.51,88.79Z"/>
</svg>