<svg xmlns="http://www.w3.org/2000/svg" viewBox="0 0 132.23 132.23">
    <defs>
        <style>.cls-2{fill:#b4cb3c;}.cls-2,.cls-3{fill-rule:evenodd;}.cls-3{fill:#0a3f5f;}</style>
    </defs>
    <path class="cls-2"
          d="M58.59,83.16a10,10,0,1,1-10-10,10,10,0,0,1,10,10Zm0-49.12a10,10,0,1,1-10-10,10,10,0,0,1,10,10Zm47.59,10H61.09V29a2.53,2.53,0,0,1,2.51-2.51H91.16a15,15,0,0,1,15,15v2.5Zm0,49.12H61.09v-15a2.53,2.53,0,0,1,2.51-2.5H91.16a15,15,0,0,1,15,15Z"/>
    <path class="cls-3"
          d="M36.07,95.67V72.25h0V56.58H96.16V73.22a18.25,18.25,0,0,1,10,7.27V49.07a2.52,2.52,0,0,0-2.51-2.5H36.07V19a2.53,2.53,0,0,0-2.51-2.52h-5A2.54,2.54,0,0,0,26.05,19v96.69h10v-10H96.16v10h10V98.18a2.54,2.54,0,0,0-2.51-2.51Z"/>
</svg>