<svg xmlns="http://www.w3.org/2000/svg" viewBox="0 0 132.23 132.23">
    <defs>
        <style>.cls-2{fill:#0a3f5f;}.cls-2,.cls-3{fill-rule:evenodd;}.cls-3{fill:#b4cb3c;}</style>
    </defs>
            <path class="cls-2"
                  d="M67.45,66.75c3.72-6.7,7.44-10.06,14.88-10.06,8.21,0,14.87,6,14.87,13.42,0,13.41-14.87,26.83-29.75,40.24C52.58,96.94,37.71,83.52,37.71,70.11c0-7.41,6.67-13.42,14.87-13.42C60,56.69,63.74,60.05,67.45,66.75Z"/>
            <path class="cls-3"
                  d="M98.09,57.91C87.94,49.47,106.67,28.22,116.23,36s-8,30.32-18.14,21.89ZM78.37,50c13,2.2,16.89-26.09,4.7-28s-17.71,25.84-4.7,28Zm-44.23,7.9C44.29,49.47,25.57,28.22,16,36s8,30.32,18.14,21.89ZM53.86,50c-13,2.2-16.89-26.09-4.7-28S66.87,47.82,53.86,50Z"/>
</svg>