<svg xmlns="http://www.w3.org/2000/svg" viewBox="0 0 110.17 110.17">
    <defs>
        <style>.cls-2{fill:#0a3f5f;}.cls-2,.cls-3{fill-rule:evenodd;}.cls-3{fill:#b4cb3c;}</style>
    </defs>
    <path class="cls-2"
          d="M89.59,55.1H87.12a2.11,2.11,0,0,1-1.25-.42,2.14,2.14,0,0,1-.53-3L91,43.6a1.84,1.84,0,0,1,.53-.51,2.16,2.16,0,0,1,3,.51l5.65,8.08a2.07,2.07,0,0,1,.39,1.25,2.17,2.17,0,0,1-2.16,2.17H96.66a41.9,41.9,0,0,1-65.15,33,3.49,3.49,0,0,1-.94-4.86,3.55,3.55,0,0,1,4.9-.93A34.82,34.82,0,0,0,89.59,55.1Zm-69,0h0A34.82,34.82,0,0,1,74.69,27.89,3.56,3.56,0,0,0,79.6,27a3.48,3.48,0,0,0-.95-4.86,41.9,41.9,0,0,0-65.15,33H11.75a2.17,2.17,0,0,0-2.16,2.14A2.07,2.07,0,0,0,10,58.49l5.65,8.08a2.19,2.19,0,0,0,3,.55,2.81,2.81,0,0,0,.54-.55l5.65-8.08a2.15,2.15,0,0,0-.54-3,2,2,0,0,0-1.24-.39Z"/>
    <path class="cls-3"
          d="M69.89,44.92l5,3.79A1.85,1.85,0,0,1,73.71,52h-2v20.4A3.72,3.72,0,0,1,68,76.15H59.78V61.46H50.39V76.15H42.13a3.72,3.72,0,0,1-3.71-3.72V52h-2a1.82,1.82,0,0,1-1.85-1.8,2,2,0,0,1,.72-1.52L54,34.42a1.79,1.79,0,0,1,2.25,0l6.28,4.85v-.2a1.88,1.88,0,0,1,1.85-1.86H68a1.87,1.87,0,0,1,1.85,1.86v5.85Z"/>
</svg>