<svg xmlns="http://www.w3.org/2000/svg" viewBox="0 0 132.23 132.23">
    <defs>
        <style>.cls-2{fill:#b4cb3c;}.cls-2,.cls-4{fill-rule:evenodd;}.cls-3,.cls-4{fill:#0a3f5f;}
        </style>
    </defs>
    <path class="cls-2" d="M104.27,36.74A11.74,11.74,0,1,0,92.54,48.49,11.76,11.76,0,0,0,104.27,36.74Z"/>
    <path class="cls-2"
          d="M110.15,64.69c0-3.71.14-16.2-5.68-16.2-1,0-5.75,3.91-11.93,3.91a18.24,18.24,0,0,1-6.1-1.06,22.17,22.17,0,0,1,.22,3A20.77,20.77,0,0,1,83,66.12,16.19,16.19,0,0,1,95.11,72h6.14C105.84,72,110.15,69.79,110.15,64.69Z"/>
    <ellipse class="cls-3" cx="66.12" cy="54.37" rx="17.61" ry="17.63"/>
    <path class="cls-2" d="M51.44,36.74A11.74,11.74,0,1,0,39.69,48.49,11.77,11.77,0,0,0,51.44,36.74Z"/>
    <path class="cls-4"
          d="M98.41,95.35c0-10.37-2.43-26.3-15.87-26.3-1.57,0-7.25,6.39-16.42,6.39S51.26,69.05,49.7,69.05c-13.45,0-15.87,15.93-15.87,26.3,0,7.43,4.9,11.89,12.25,11.89H86.15C93.5,107.24,98.41,102.78,98.41,95.35Z"/>
    <path class="cls-2"
          d="M49.28,66.12A20.39,20.39,0,0,1,45.8,51.34a18.35,18.35,0,0,1-6.11,1.06c-6.18,0-10.95-3.91-11.92-3.91-5.83,0-5.69,12.49-5.69,16.2C22.08,69.79,26.4,72,31,72h6.14A16.18,16.18,0,0,1,49.28,66.12Z"/>
</svg>