<svg xmlns="http://www.w3.org/2000/svg" viewBox="0 0 132.23 132.23">
    <defs>
        <style>.cls-2{fill:#b4cb3c;}.cls-2,.cls-3{fill-rule:evenodd;}.cls-3{fill:#0a3f5f;}</style>
    </defs>
    <path class="cls-2"
          d="M18.45,37.25V71.71c2,.3,3.88.65,5.75,1.09a13.62,13.62,0,0,1,2.19-3.15c2.73-3,6.85-4.7,10.84-3.11,1.48.6,11.08,11,12.59,12.57s11.52,11.64,12,13a7.79,7.79,0,0,1,.27,5l4.13,3.53a4.27,4.27,0,0,0,6.33,0c2.24-2.41.25-4.62-1.37-6.43L66,88.41A1.09,1.09,0,0,1,67.61,87l6.62,7.4c4.84,4.91,10.11-.38,6.52-4.8l-6.54-7.3a1.09,1.09,0,0,1,1.63-1.46l6.85,7.65A11.93,11.93,0,0,0,84.51,90c3.15,1.92,8.5-2.51,4.8-6.7l-6.09-6.88a1.09,1.09,0,0,1,.08-1.54,1.1,1.1,0,0,1,1.55.09l6.62,7.4a4.37,4.37,0,0,0,7.06-4.31,7.59,7.59,0,0,0-1.66-2.65l-.48-.6a10.54,10.54,0,0,1-1-1l-.07-.09L78.47,52.69l-2.11-2.61a2.58,2.58,0,0,0-.77-.46c-1.8-.66-6,1.38-7.68,2l-9.12,3.3c-9,3.59-16.65-7.22-10.11-14.39,1.6-1.76,3.22-2.15,5.29-3,2.88-1.21,5.76-2.45,8.65-3.66a15.34,15.34,0,0,0-2.75-1.2,13.17,13.17,0,0,0-7.1,0c-4.14,1.21-7.5,3.19-10.93,5s-6.2,4.89-11.59,3.63C27.08,40.48,21.13,37.84,18.45,37.25Z"/>
    <path class="cls-3"
          d="M113.78,44l-7.37.62c-6.7.55-7.07,1.3-11.42-3.57l-4.69-5.2c-7.3-8.2-7.79-6.07-17.24-2.61-5.69,2.09-12.18,4.93-17.81,7.3-1.6.67-3,1-4.14,2.2a5.69,5.69,0,0,0,6.46,9.11l9.22-3.34c2.59-.91,6.77-3.13,9.94-2a7.45,7.45,0,0,1,3.54,3.13l17.52,22c2.87,3.13,6.39,2.37,10.3,2.22,1.92-.08,3.76-.23,5.69-.3Z"/>
    <path class="cls-3"
          d="M56,100.07c1.73-1.33,4-3.6,2.8-6.78,0,0-22.44-23.55-22.78-23.69-2.77-1.11-5.44.33-7.17,2.25-3,3.34-3,6.05,0,9.23l18.77,19.59C50,103.16,53.63,101.89,56,100.07Z"/>
</svg>