<?xml version="1.0" encoding="UTF-8"?>
<svg xmlns="http://www.w3.org/2000/svg" viewBox="0 0 110.17 110.17">
    <path d="M68.67,32.2c-5.66,0-10.25-4.59-10.25-10.25s4.59-10.25,10.25-10.25,10.25,4.59,10.25,10.25-4.59,10.25-10.25,10.25h0Zm-12.66,16.87c-.01-.49-.34-.91-.82-1.02-.03,0-.08-.02-.12-.03-.33-.08-.65-.01-.92,.2-.27,.21-.41,.51-.41,.85v16.09c0,1.83-1.5,3.35-3.34,3.35h0c-1.84,0-3.34-1.51-3.34-3.35v-21.87c0-4.74,3.87-8.6,8.6-8.6h0s.36,0,.36,0h12.66s13.01,0,13.01,0h0s0,0,0,0c4.73,0,8.61,3.87,8.61,8.6v21.87c0,1.84-1.51,3.35-3.34,3.35h0c-1.84,0-3.34-1.51-3.34-3.35v-16.09c0-.34-.15-.64-.41-.85-.27-.21-.59-.28-.92-.2-.04,0-.09,.02-.12,.03-.48,.11-.81,.53-.82,1.02v43.64c0,3.16-2.59,5.75-5.75,5.75h0c-3.16,0-5.75-2.59-5.75-5.75v-14.51s0-5.68,0-5.68h-2.31v20.19c0,3.16-2.59,5.75-5.75,5.75h0c-3.16,0-5.75-2.59-5.75-5.75V49.07Z" style="fill: #b4cb3c; fill-rule: evenodd;"/>
    <path d="M27,58.44c0,1.82,.64,3.36,1.91,4.63,1.27,1.27,2.83,1.91,4.64,1.91s3.37-.64,4.64-1.91c1.27-1.27,1.91-2.82,1.91-4.63s-.64-3.37-1.91-4.64c-1.27-1.27-2.83-1.91-4.64-1.91s-3.37,.64-4.64,1.91c-1.27,1.27-1.91,2.82-1.91,4.64h0Zm3.69,8h7.5l6.27-6.28c.1-.09,.2-.17,.31-.25v8.65l-3.22,3.5v23.49c0,.79-.29,1.47-.86,2.05-.57,.57-1.26,.86-2.05,.86h-1.45c-.79,0-1.48-.29-2.05-.86-.57-.58-.86-1.26-.86-2.05v-10.19h-1.46v10.19c0,.79-.29,1.47-.86,2.05-.57,.57-1.26,.86-2.05,.86h-1.45c-.79,0-1.48-.29-2.05-.86-.57-.58-.86-1.26-.86-2.05v-20.01h0c0-.31-.22-.57-.52-.64-.02,0-.05-.01-.08-.02-.21-.05-.41,0-.58,.12-.17,.13-.26,.32-.26,.54v10.18c0,1.16-.95,2.12-2.11,2.12h0c-1.16,0-2.12-.95-2.12-2.12v-13.83c0-3,2.45-5.44,5.44-5.44h0s3.59,0,3.59,0h1.78Z" style="fill: #0a3f5f; fill-rule: evenodd;"/>
</svg>