<?xml version="1.0" encoding="UTF-8"?>
<svg xmlns="http://www.w3.org/2000/svg" viewBox="0 0 110.17 110.17">
    <path d="M13.04,75.51c0,3.42,2.77,6.19,6.18,6.19h46.83c-.41-1.62-.62-3.31-.62-5.05,0-4.22,1.27-8.15,3.45-11.43h-8.47c-1.14,0-2.07-.92-2.07-2.07s.92-2.05,2.07-2.05h12.07c3.64-3.19,8.4-5.13,13.62-5.13,.36,0,.72,0,1.08,.03v-19.62H13.04v39.13h0Zm47.38-30.89h16.48c1.13,0,2.05,.92,2.05,2.05s-.92,2.06-2.05,2.06h-16.48c-1.14,0-2.07-.92-2.07-2.06s.92-2.05,2.07-2.05h0Zm0,8.24h16.48c1.13,0,2.05,.92,2.05,2.05s-.92,2.07-2.05,2.07h-16.48c-1.14,0-2.07-.92-2.07-2.07s.92-2.05,2.07-2.05h0Zm-24.72-8.24c4.55,0,8.24,3.69,8.24,8.24s-3.69,8.24-8.24,8.24-8.24-3.69-8.24-8.24,3.69-8.24,8.24-8.24h0Zm-8.24,20.6h16.48c3.41,0,6.17,2.77,6.17,6.17,0,1.14-.92,2.07-2.05,2.07H23.35c-1.14,0-2.06-.92-2.06-2.07,0-3.41,2.77-6.17,6.18-6.17h0Z" style="fill: #b4cb3c; fill-rule: evenodd;"/>
    <path d="M81.02,24.03H19.23c-3.42,0-6.18,2.77-6.18,6.17v2.07H87.19v-2.07c0-3.41-2.77-6.17-6.17-6.17Z" style="fill: #0a3f5f; fill-rule: evenodd;"/>
    <path d="M103.82,76.65c0,9.78-7.93,17.71-17.71,17.71s-17.7-7.93-17.7-17.71,7.93-17.7,17.7-17.7,17.71,7.93,17.71,17.7h0Zm-12.21-5.32l-7.46,7.46-3.53-3.53c-.77-.78-2.03-.78-2.78,0-.78,.77-.78,2.01,0,2.78l4.92,4.92c.76,.78,2.01,.78,2.77,0l8.86-8.86c.78-.77,.78-2.01,0-2.78-.76-.78-2.01-.78-2.78,0h0Z" style="fill: #0a3f5f; fill-rule: evenodd;"/>
</svg>