<?xml version="1.0" encoding="UTF-8"?>
<svg xmlns="http://www.w3.org/2000/svg" viewBox="0 0 110.17 110.17">
    <path d="M19.74,32.86c0-4.88,3.96-8.84,8.84-8.84h53.02c4.88,0,8.84,3.96,8.84,8.84v22.6c-2.04-1.14-4.6-1.12-6.62,.06v-14.6H26.37v32.18c0,1.21,.98,2.2,2.2,2.2h42.68l-3.89,6.63H28.57c-4.88,0-8.84-3.96-8.84-8.84V32.86h0Zm13.26,3.17c2.44,0,4.42-1.98,4.42-4.42s-1.98-4.42-4.42-4.42-4.42,1.98-4.42,4.42,1.98,4.42,4.42,4.42h0Zm13.26-8.84c-2.44,0-4.42,1.98-4.42,4.42s1.98,4.42,4.42,4.42,4.42-1.98,4.42-4.42-1.98-4.42-4.42-4.42h0Zm13.26,8.84c2.44,0,4.42-1.98,4.42-4.42s-1.98-4.42-4.42-4.42-4.42,1.98-4.42,4.42,1.98,4.42,4.42,4.42Z" style="fill: #b4cb3c; fill-rule: evenodd;"/>
    <path d="M103.63,92.53h-31.92c-2.46,0-3.99-2.63-2.76-4.71l15.95-27.23c1.23-2.09,4.31-2.09,5.54,0l15.96,27.23c1.22,2.09-.31,4.71-2.76,4.71Zm-13.61-7.14c0-1.3-1.05-2.35-2.35-2.35s-2.35,1.05-2.35,2.35,1.05,2.35,2.35,2.35,2.35-1.05,2.35-2.35Zm-4.15-6.63c0,1,.94,1.8,1.86,1.8s1.73-.8,1.73-1.8v-9.58c0-.99-.8-1.79-1.8-1.79s-1.8,.8-1.8,1.79v9.58Z" style="fill: #0a3f5f;"/>
    <path d="M38.35,63.32h27.82c1.13,0,2.05,.92,2.05,2.05s-.93,2.07-2.05,2.07h-27.82c-1.14,0-2.07-.92-2.07-2.07s.92-2.05,2.07-2.05h0Zm0-16.48h33.48c1.13,0,2.05,.92,2.05,2.05s-.92,2.06-2.05,2.06H38.35c-1.14,0-2.07-.92-2.07-2.06s.92-2.05,2.07-2.05h0Zm0,8.24h33.48c1.13,0,2.05,.92,2.05,2.05s-.92,2.07-2.05,2.07H38.35c-1.14,0-2.07-.92-2.07-2.07s.92-2.05,2.07-2.05Z" style="fill: #b4cb3c; fill-rule: evenodd;"/>
</svg>