<?xml version="1.0" encoding="UTF-8"?>
<svg xmlns="http://www.w3.org/2000/svg" viewBox="0 0 110.17 110.17">
      <path d="M54.15,94.15c5.7-3.33,10.93-7.64,15.36-12.59-.69-.53-1.34-1.11-1.96-1.72-3.61-3.61-5.85-8.6-5.85-14.11s2.23-10.5,5.85-14.11,8.6-5.85,14.11-5.85c.49,0,.98,.02,1.47,.05l-.36-21.73-28.61-8.58V94.15Z" style="fill: #0a3f5f; fill-rule: evenodd;"/>
      <path d="M50.02,15.52l-28.61,8.58-.44,26.47c-.15,8.88,3.95,17.86,8.96,25.02,5.21,7.46,12.2,13.95,20.09,18.56V15.52Z" style="fill: #b4cb3c; fill-rule: evenodd;"/>
      <path d="M81.66,48.77c-4.68,0-8.92,1.9-11.99,4.97s-4.97,7.31-4.97,11.99,1.9,8.92,4.97,11.99,7.31,4.97,11.99,4.97,8.92-1.9,11.99-4.97c3.07-3.07,4.97-7.31,4.97-11.99s-1.9-8.92-4.97-11.99-7.31-4.97-11.99-4.97h0Zm-4.35,26.14l-7.61-7.61c-.46-.46-.46-1.2,0-1.65l1.65-1.65c.46-.46,1.2-.46,1.65,0l5.13,5.12,10.98-10.97c.46-.46,1.2-.46,1.65,0l1.65,1.65c.46,.46,.46,1.2,0,1.65l-13.46,13.46c-.46,.46-1.2,.46-1.65,0Z" style="fill: #b4cb3c; fill-rule: evenodd;"/>
</svg>