<?xml version="1.0" encoding="UTF-8"?>
<svg xmlns="http://www.w3.org/2000/svg" viewBox="0 0 110.17 110.17">
    <path d="M91.33,72.15c-3.6-17.19-17.43-27.5-32.21-29.1v-2.26c0-2.23-1.81-4.03-4.03-4.03s-4.15,1.81-4.15,4.03v2.26c-14.71,1.6-28.43,11.91-32.1,29.1-.28,1.16,1.08,2.67,2.36,1.42,6.56-6.92,13.58-6.6,19.99,4.67,.67,1.19,1.88,1.09,2.48,0,2.55-4.45,5.65-9.22,11.31-9.22,7.38,0,11.12,8.66,11.43,9.22,.61,1.09,1.82,1.19,2.48,0,6.43-11.28,13.49-11.51,19.99-4.67,1.41,1.26,2.74-.26,2.46-1.42h0Z"
          style="fill: #b4cb3c; fill-rule: evenodd;"/>
    <path d="M50.94,74.77v16.41c0,1.12-.9,2.02-2.01,2.02-.99,0-1.67-.67-1.9-1.34-.74-2.11-3.03-3.2-5.14-2.46-2.11,.74-3.2,3.05-2.46,5.14,1.53,4.03,5.35,6.73,9.5,6.73,5.67,0,10.19-4.53,10.19-10.19v-16.42c-1.15-1-2.49-1.71-4.03-1.71-1.55,.11-2.82,.71-4.15,1.83Z"
          style="fill: #0a3f5f; fill-rule: evenodd;"/>

    <path d="M26.05,15.9h0c1.86,0,3.37,1.52,3.37,3.38v12.4c0,1.86-1.52,3.37-3.37,3.37h0c-1.86,0-3.37-1.52-3.37-3.37v-12.4c0-1.86,1.52-3.38,3.37-3.38Z"
          style="fill: #0a3f5f; fill-rule: evenodd;"/>
    <path d="M39.55,25.72h0c1.86,0,3.37,1.52,3.37,3.38v4.45c0,1.86-1.52,3.38-3.37,3.38h0c-1.86,0-3.37-1.52-3.37-3.38v-4.45c0-1.86,1.52-3.38,3.37-3.38Z"
          style="fill: #0a3f5f; fill-rule: evenodd;"/>
    <path d="M39.55,9.66h0c1.86,0,3.37,1.52,3.37,3.37v4.45c0,1.86-1.52,3.38-3.37,3.38h0c-1.86,0-3.37-1.52-3.37-3.38v-4.45c0-1.86,1.52-3.37,3.37-3.37Z"
          style="fill: #0a3f5f; fill-rule: evenodd;"/>
    <path d="M53.05,12.92h0c-1.86,0-3.37,1.52-3.37,3.37v8.81c0,1.86,1.52,3.38,3.37,3.38h0c1.86,0,3.37-1.52,3.37-3.38v-8.81c0-1.86-1.52-3.37-3.37-3.37Z"
          style="fill: #0a3f5f; fill-rule: evenodd;"/>
    <path d="M66.74,19.09h0c1.86,0,3.37,1.52,3.37,3.37v12.4c0,1.86-1.52,3.38-3.37,3.38h0c-1.86,0-3.38-1.52-3.38-3.38v-12.4c0-1.86,1.52-3.37,3.38-3.37Z"
          style="fill: #0a3f5f; fill-rule: evenodd;"/>
    <path d="M80.24,28.91h0c1.86,0,3.37,1.52,3.37,3.37v4.45c0,1.86-1.52,3.37-3.37,3.37h0c-1.86,0-3.37-1.52-3.37-3.37v-4.45c0-1.86,1.52-3.37,3.37-3.37Z"
          style="fill: #0a3f5f; fill-rule: evenodd;"/>
    <path d="M80.24,12.84h0c1.86,0,3.37,1.52,3.37,3.38v4.45c0,1.86-1.52,3.37-3.37,3.37h0c-1.86,0-3.37-1.52-3.37-3.37v-4.45c0-1.86,1.52-3.38,3.37-3.38Z"
          style="fill: #0a3f5f; fill-rule: evenodd;"/>
</svg>