<?xml version="1.0" encoding="UTF-8"?>
<svg xmlns="http://www.w3.org/2000/svg" viewBox="0 0 110.17 110.17">
    <path d="M93.97,81.19c3.5-4.15,5.61-9.34,5.61-14.99,0-13.51-11.96-24.47-26.7-24.47-.05,0-.08,0-.13,.01,.06,.72,.13,1.46,.13,2.21,0,13.72-11.08,25.2-25.88,28.17,2.9,10.64,13.24,18.56,25.88,18.56,4.69,0,9.08-1.12,12.91-3.06,3.38,1.67,7.69,3.06,12.72,3.06,.43,0,.79-.24,.97-.64,.17-.4,.09-.85-.2-1.16-.04-.05-3.05-3.3-5.32-7.69Z" style="fill: #0a3f5f; fill-rule: evenodd;"/>
    <path d="M68.43,43.96c0-13.51-12.94-24.47-28.92-24.47S10.59,30.44,10.59,43.96c0,5.51,2.17,10.57,5.79,14.67-2.28,4.56-5.45,7.96-5.51,8.02-.28,.3-.37,.76-.2,1.15,.18,.4,.56,.64,.98,.64,5.33,0,9.84-1.54,13.31-3.35,4.28,2.11,9.23,3.35,14.55,3.35,15.97,0,28.92-10.95,28.92-24.48h0Zm-23.43-6.24l8.48,1.25c.7,.1,1.29,.59,1.52,1.27,.23,.69,.05,1.43-.46,1.93l-6.15,6.04,1.45,8.66c.12,.71-.17,1.43-.76,1.85-.58,.42-1.36,.47-1.99,.14l-7.58-4.05-7.57,4.05c-.64,.33-1.41,.28-2-.14-.58-.42-.88-1.14-.76-1.85l1.45-8.66-6.15-6.04c-.51-.51-.69-1.25-.47-1.93,.22-.68,.81-1.17,1.52-1.27l8.47-1.25,3.8-7.81c.31-.66,.97-1.06,1.69-1.06s1.39,.41,1.7,1.06l3.79,7.81h0Z" style="fill: #b4cb3c; fill-rule: evenodd;"/>
</svg>