<?xml version="1.0" encoding="UTF-8"?>
<svg xmlns="http://www.w3.org/2000/svg" viewBox="0 0 121.51 121.51">
    <path d="m96.56,66.7c5.7,3.84,9.33,9.65,9.33,16.16,0,4.99-2.15,9.55-5.72,13.15,1.25,5.06,5.46,9.58,5.51,9.63.22.22.28.57.15.87-.12.3-.4.48-.73.48-6.66,0-11.58-3.19-14.14-5.17-3.28,1.23-6.93,1.95-10.8,1.95-12.71,0-23.19-7.48-25.28-17.25.52.01,1.04.02,1.57.02,15.42,0,31.87-7.19,40.12-19.85Z" style="fill: #0a3f5f; fill-rule: evenodd;"/>
    <path d="m56.3,15.91c-22.1,0-39.86,14.56-39.86,32.51,0,7.75,3.33,14.84,8.89,20.43-1.95,7.87-8.48,14.88-8.56,14.96-.35.35-.44.89-.23,1.36.19.47.63.75,1.13.75,10.35,0,17.99-4.96,21.98-8.03,5.09,1.91,10.78,3.03,16.78,3.03,22.1,0,39.87-14.55,39.87-32.37S78.4,15.91,56.3,15.91h0Zm-20.15,37.51c-2.77,0-5-2.23-5-4.87s2.23-5,5-5,5,2.23,5,5-2.09,4.87-5,4.87h0Zm20.15,0c-2.77,0-4.85-2.23-4.85-4.87s2.23-5,4.85-5,4.85,2.23,4.85,5-2.07,4.87-4.85,4.87h0Zm19.86,0c-2.77,0-5-2.23-5-4.87s2.23-5,5-5,5,2.23,5,5-2.09,4.87-5,4.87Z" style="fill: #bdd24b; fill-rule: evenodd;"/>
</svg>