<svg xmlns="http://www.w3.org/2000/svg" viewBox="0 0 110.17 110.17">
    <defs>
        <style>.cls-2{fill:#0a3f5f;}.cls-2,.cls-3{fill-rule:evenodd;}.cls-3{fill:#b4cb3c;}</style>
    </defs>
    <path class="cls-2"
          d="M55.08,88.89A33.8,33.8,0,1,0,31.18,79a33.7,33.7,0,0,0,23.9,9.9Zm28.15-5.66A39.8,39.8,0,1,1,94.89,55.08,39.64,39.64,0,0,1,83.23,83.23Z"/>
    <path class="cls-3"
          d="M55.08,25.36a28.84,28.84,0,0,1,14.86,4A30,30,0,0,1,80.8,40.22,29.49,29.49,0,0,1,80.8,70,30,30,0,0,1,69.94,80.8a29.56,29.56,0,0,1-29.73,0A30.07,30.07,0,0,1,29.37,70a29.49,29.49,0,0,1,0-29.73A30.07,30.07,0,0,1,40.21,29.37a28.93,28.93,0,0,1,14.87-4Zm9.83,42.91a5.35,5.35,0,0,0,1.68-4,3.58,3.58,0,0,0-1.08-2.63L63.84,60a3.62,3.62,0,0,0-2.64-1.08h-8a6.35,6.35,0,0,1-1.57-1.8c-.55-.63-1-1.11-1.2-1.43a1.64,1.64,0,0,0-1.07-.61,7.93,7.93,0,0,1-3.6-.83l-1.32-.72a1.35,1.35,0,0,1-.84-1.32,1.33,1.33,0,0,1,1-1.32l3.72-1.2a1.86,1.86,0,0,1,1.92.36l1.07,1a.84.84,0,0,0,.61.24h.71a.87.87,0,0,0,.84-.48,1,1,0,0,0,0-1l-1.8-3.72A.81.81,0,0,1,51.72,45l1.2-1.21a1,1,0,0,1,.73-.23h1.07a.88.88,0,0,0,.61-.24l1-1a1.06,1.06,0,0,0,.36-.73,1,1,0,0,0-.36-.71l-.47-.48a1,1,0,0,1-.37-.72,1,1,0,0,1,.37-.72l1.79-1.8a1.75,1.75,0,0,0,.48-1.32,1.78,1.78,0,0,0-.48-1.32L54.13,31.1c-1,.09-1.93.21-2.89.36v1.32a1.87,1.87,0,0,1-2.75,1.68L45.61,33a23.09,23.09,0,0,0-7.37,5,23.87,23.87,0,0,0-5,7.25l4.08,6.12a13.54,13.54,0,0,0,2.16,2.52l.12.12a20.3,20.3,0,0,0,3.89,2.63c1.4.73,3.34,1.76,5.82,3.12a4,4,0,0,1,1.38,1.38,3.74,3.74,0,0,1,.53,2V67a3.76,3.76,0,0,0,1.2,2.76,9.25,9.25,0,0,1,2,3.06,6.43,6.43,0,0,1,.66,3v3.25a23.27,23.27,0,0,0,5.16-.61l2-5.64a6,6,0,0,0,.48-1.43l.13-.48a2.2,2.2,0,0,1,.6-1.32c.32-.32.8-.76,1.43-1.32Zm10.44-11,3.47,1a24.32,24.32,0,0,0,.24-3.13,23.55,23.55,0,0,0-2.52-10.67L75,45.13a3.81,3.81,0,0,0-1.21,1l-2.27,3.6A2.68,2.68,0,0,0,71,51.25a2.65,2.65,0,0,0,.48,1.55l2.16,3.25A2.57,2.57,0,0,0,75.35,57.24Z"/>
</svg>