<?xml version="1.0" encoding="UTF-8"?>
<svg xmlns="http://www.w3.org/2000/svg" viewBox="0 0 121.51 121.51">
    <path d="m99.92,64.39c-.43.79-1.26,1.29-2.17,1.29h-44.45c-.92,0-1.63-.53-2.06-1.34-.42-.83-.34-1.82.21-2.57l10.78-14.77c.46-.64,1.19-1.01,1.84-1.01.79,0,1.52.38,1.99,1.01l3.44,4.71,9.65-14.48c.46-.68,1.22-1.09,2.18-1.09.83,0,1.59.41,2.05,1.09l16.41,24.62c.51.76.56,1.72.13,2.55h0ZM58.22,31.21c-2.59,0-4.92,2.21-4.92,4.92s2.34,4.92,4.92,4.92c2.72,0,4.92-2.21,4.92-4.92s-2.2-4.92-4.92-4.92h0Zm44.31-9.84h-54.15c-3.94,0-7.39,3.31-7.39,7.38v39.38c0,4.08,3.31,7.39,7.39,7.39h54.15c4.08,0,7.38-3.31,7.38-7.39V28.75c.15-4.07-3.16-7.38-7.38-7.38Z" style="fill: #bdd24b; fill-rule: evenodd;"/>
    <path d="m65.75,87.82c0,1.37-1.1,2.47-2.46,2.47h-24.62c-1.37,0-2.47-1.1-2.47-2.47v-46.76h-17.22c-4.08,0-7.39,3.31-7.39,7.38v44.32c0,4.07,3.31,7.38,7.39,7.38h64c4.07,0,7.38-3.31,7.38-7.38v-12.31h-24.62v7.38h0Zm-38.15,1.09c0,.76-.62,1.38-1.39,1.38h-4.61c-.78,0-1.39-.62-1.39-1.38v-4.62c0-.76.62-1.39,1.39-1.39h4.61c.78,0,1.39.63,1.39,1.39v4.62h0Zm0-16c0,.76-.62,1.38-1.39,1.38h-4.61c-.78,0-1.39-.62-1.39-1.38v-4.62c0-.76.62-1.38,1.39-1.38h4.61c.78,0,1.39.62,1.39,1.38v4.62h0Zm0-16c0,.76-.62,1.38-1.39,1.38h-4.61c-.78,0-1.39-.62-1.39-1.38v-4.62c0-.76.62-1.38,1.39-1.38h4.61c.78,0,1.39.62,1.39,1.38v4.62h0Zm46.76,27.38c0-.76.62-1.39,1.39-1.39h4.61c.78,0,1.39.63,1.39,1.39v4.62c0,.76-.62,1.38-1.39,1.38h-4.61c-.78,0-1.39-.62-1.39-1.38v-4.62Z" style="fill: #0a3f5f; fill-rule: evenodd;"/>
</svg>