<svg xmlns="http://www.w3.org/2000/svg" viewBox="0 0 110.17 110.17">
    <defs>
        <style>.cls-2{fill:#0a3f5f;}.cls-2,.cls-3{fill-rule:evenodd;}.cls-3{fill:#b4cb3c;}</style>
    </defs>
    <path class="cls-2"
          d="M83.26,26.44a5.48,5.48,0,0,1,1.66,4V89.66a5.67,5.67,0,0,1-5.68,5.68H30.94a5.65,5.65,0,0,1-5.69-5.68V20.51a5.65,5.65,0,0,1,5.69-5.68H69.28a5.46,5.46,0,0,1,4,1.66l10,10ZM78.76,30l-9-9v9ZM30.94,89.66h48.3v-54H66.91a2.83,2.83,0,0,1-2.84-2.84V20.51H30.94Z"/>
    <path class="cls-3"
          d="M54.49,67.22,45.41,72a1.26,1.26,0,0,1-1.71-.53,1.24,1.24,0,0,1-.13-.8l1.74-10.12a1.26,1.26,0,0,0-.37-1.12L37.6,52.27a1.26,1.26,0,0,1,0-1.79,1.28,1.28,0,0,1,.73-.39l10.15-1.47a1.25,1.25,0,0,0,.95-.68l4.54-9.21a1.27,1.27,0,0,1,2.28,0l4.54,9.21a1.28,1.28,0,0,0,1,.68l10.15,1.47A1.28,1.28,0,0,1,73,51.54a1.25,1.25,0,0,1-.37.73l-7.35,7.16a1.22,1.22,0,0,0-.36,1.12L66.6,70.67a1.27,1.27,0,0,1-1,1.46,1.23,1.23,0,0,1-.8-.13l-9.08-4.78a1.31,1.31,0,0,0-1.19,0Z"/>
</svg>