<svg xmlns="http://www.w3.org/2000/svg" viewBox="0 0 110.17 110.17">
    <defs>
        <style>.cls-2{fill:#b4cb3c;}.cls-3{fill:#0a3f5f;fill-rule:evenodd;}</style>
    </defs>
    <path class="cls-2"
          d="M29.87,66.3a24.75,24.75,0,0,1,10.79,2.35A20.2,20.2,0,0,1,48.47,75a14.73,14.73,0,0,1,0,17.55,20.18,20.18,0,0,1-7.81,6.34,24.61,24.61,0,0,1-10.79,2.35,25.41,25.41,0,0,1-9-1.6,22.78,22.78,0,0,1-4.62,2.78A18.3,18.3,0,0,1,9,103.93a.6.6,0,0,1-.59-.42.74.74,0,0,1,.09-.76,19.76,19.76,0,0,0,1.93-2.43,18,18,0,0,0,2.69-5.55,17.93,17.93,0,0,1-3.53-5.12,14.06,14.06,0,0,1-1.26-5.88A14.52,14.52,0,0,1,11.27,75a20.2,20.2,0,0,1,7.81-6.35A24.75,24.75,0,0,1,29.87,66.3Z"/>
    <path class="cls-3"
          d="M39.93,24.85l1.59,2.75a2,2,0,1,1-3.45,2l-1.59-2.75a34,34,0,0,0-5.3,4.33,33.41,33.41,0,0,0-4.33,5.3l2.74,1.59a2,2,0,1,1-2,3.45l-2.75-1.59a33.52,33.52,0,0,0-3.52,13.16H24.5a2,2,0,0,1,0,4H21.34a33.36,33.36,0,0,0,.73,5.33,31.31,31.31,0,0,0-3.77,1.33c-.63.27-1.26.56-1.88.87A39.81,39.81,0,1,1,55.76,94.89l.55-.66a19.05,19.05,0,0,0,3.2-5.62,33.79,33.79,0,0,0,10.72-3.29l-1.58-2.75a2,2,0,1,1,3.45-2l1.59,2.75A34,34,0,0,0,79,79a33.41,33.41,0,0,0,4.33-5.3L80.58,72.1a2,2,0,1,1,2-3.45l2.75,1.59a33.52,33.52,0,0,0,3.52-13.16H85.67a2,2,0,0,1,0-4h3.16a33.59,33.59,0,0,0-3.51-13.15l-2.75,1.58a2,2,0,1,1-2-3.45l2.75-1.59A34,34,0,0,0,79,31.18a33.41,33.41,0,0,0-5.3-4.33L72.1,29.59a2,2,0,1,1-3.45-2l1.59-2.75a33.52,33.52,0,0,0-13.16-3.52V24.5a2,2,0,0,1-4,0V21.34A33.68,33.68,0,0,0,39.93,24.85Z"/>
    <path class="cls-2"
          d="M54.21,63H37.08v-4.2l5.76-5.82c1.65-1.73,2.73-2.9,3.23-3.53a7.46,7.46,0,0,0,1.06-1.63,3.45,3.45,0,0,0,.3-1.42,1.85,1.85,0,0,0-.6-1.45,2.47,2.47,0,0,0-1.68-.53A4.54,4.54,0,0,0,42.9,45a15.8,15.8,0,0,0-2.58,1.88l-3.5-4.11a19.5,19.5,0,0,1,3.07-2.33,11,11,0,0,1,2.7-1.07A13.3,13.3,0,0,1,45.88,39a10,10,0,0,1,4.09.8,6.47,6.47,0,0,1,2.8,2.31,5.91,5.91,0,0,1,1,3.35,8.7,8.7,0,0,1-1.42,4.88,16.49,16.49,0,0,1-1.93,2.4q-1.2,1.26-5.13,4.78v.16h8.93Z"/>
    <path class="cls-2"
          d="M74.35,58.39h-2.6V63h-6.3V58.39H56V53.71l9.81-14.35h5.9V53.63h2.6Zm-8.9-4.76V50.88c0-.51,0-1.21,0-2.09s.07-1.33.09-1.38h-.17a16.65,16.65,0,0,1-1.25,2.33l-2.61,3.89Z"/>
</svg>