<?xml version="1.0" encoding="UTF-8"?>
<svg xmlns="http://www.w3.org/2000/svg" viewBox="0 0 121.51 121.51">
    <path d="m66.08,44.61H28.77v-5.17c0-2.93,2.4-5.33,5.33-5.33h26.65c2.94,0,5.33-2.39,5.33-5.33s-2.39-5.33-5.33-5.33h-26.65c-8.83,0-15.99,7.16-15.99,15.99v5.81c-3.18,1.1-5.33,4.09-5.33,7.48v34.68c0,5.88,4.78,10.51,10.66,10.51h42.64c5.88,0,10.66-4.76,10.66-10.51v-32.14c0-5.73-4.78-10.66-10.66-10.66h0Zm-2.66,15.99H26.11c-1.48,0-2.67-1.18-2.67-2.52,0-1.46,1.19-2.66,2.67-2.66h37.31c1.46,0,2.66,1.19,2.66,2.66s-1.19,2.52-2.66,2.52Z" style="fill: #bdd24b; fill-rule: evenodd;"/>
    <path d="m100.33,45.73l-18.25,12.58v26.23l18.25,12.58c3.54,2.4,8.4-.06,8.4-4.31v-42.8c0-4.24-4.85-6.71-8.4-4.28Z" style="fill: #0a3f5f; fill-rule: evenodd;"/>
</svg>